<?xml version="1.0" encoding="UTF-8"?>
<svg version="1.1" viewBox="0 0 2048 757" width="981" height="363" xmlns="http://www.w3.org/2000/svg">
<path transform="translate(414,169)" d="m0 0h9l8 2 11 3 16 8 21 12 15 9 14 8 19 11 21 12 26 15 13 10 7 7 6 10 6 16v169l-3 10-7 14-12 13-13 9-23 13-10 6-11 6-11 7-24 13-17 10-13 8-19 11-10 5-3-1v-73l8-7 17-10 24-14 25-14 10-6 12-7 10-7 3-6v-127l-3-7-9-6-13-8-13-7-22-13-21-12-22-13-11-6-7-1-9 3-20 12-16 9-39 23-31 18-2 4-1 6-1 208-16-8-17-10-14-10-5-5-7-10-5-11-2-8v-7l-1-1v-155l1-4 2-11 4-9 7-11 11-10 13-8 42-24 13-8 11-6 12-7 14-8 15-9 16-9 17-4z" fill="#248EF1"/>
<path transform="translate(1685,320)" d="m0 0h8v12l17-8 6-2 16-1 9 2 9 6 3 3 5-1 14-6 11-3 17-1 10 2 10 5 7 7 5 10 2 7 1 9v97l-1 1h-44l-1-91-2-9-1-3-14-3-7-1v106l-1 1h-44l-1-91-2-9-4-4-12-2h-7l-1 106h-44l-1-4v-128l3-2z" fill="#FEFEFE"/>
<path transform="translate(323,336)" d="m0 0 6 2 25 14 19 11 10 6 19 11 4 3 1 24v148l-1 31-14-7-15-9-19-11-29-17-5-4-3-6 1-195z" fill="#FCFDFD"/>
<path transform="translate(662,290)" d="m0 0h72l13 1 11 4 9 6 7 8 5 12 1 7v10l-3 13-6 9-5 5-9 6-2 1 15 8 9 9 5 10 1 4v19l-5 13-9 10-8 6-11 5-8 2-10 1h-73v-168zm46 23v49h7l10-3 6-7 2-8v-13l-3-10-5-5-6-2zm0 72v51l16-2 7-6 3-10v-16l-3-8-4-5-7-3-5-1z" fill="#FEFEFE"/>
<path transform="translate(863,319)" d="m0 0 18 1 14 4 11 7 9 9 6 10 5 12 3 15v21l-3 16-6 15-7 11-8 8-11 7-10 4-10 2h-19l-13-3-12-6-10-8-8-11-5-11-3-11-1-6v-24l3-15 4-11 6-11 9-10 9-7 11-5 7-2zm-3 26-6 5-3 8-2 27 1 25 2 14 4 9 5 4h11l6-5 3-9 1-8v-43l-2-14-5-10-5-3z" fill="#FEFEFE"/>
<path transform="translate(1115,288)" d="m0 0h11l15 2 31 7 2 1v28l-25-9-9-2h-14l-8 4-4 8 1 9 5 5 9 7 17 11 14 10 11 11 5 8 3 10v20l-5 14-7 10-5 5-7 6-11 5-13 3h-19l-19-3-20-5-6-2v-30l19 8 13 4 16 2 9-2 7-5 3-7-2-9-5-5-14-10-20-14-10-8v-2h-2l-7-10-4-9-1-4v-21l4-12 7-12 9-8 14-7z" fill="#FEFEFE"/>
<path transform="translate(1583,321)" d="m0 0h12l12 2 10 5 7 7 4 9 1 5v110h-42l-2-7-16 8-5 1h-13l-10-4-8-7-6-9-4-10-1-6v-11l2-10 5-12 11-12 11-6 13-3 22-2-1-17-3-6-4-2h-12l-15 4-14 5-3 1-1-7v-14l18-6 22-5zm0 71-8 4-5 6-3 9v9l3 7 5 4 10 1 1-1v-39z" fill="#FEFEFE"/>
<path transform="translate(1452,321)" d="m0 0h9l13 2 10 4 9 7 8 9 6 12 2 12v21l-25 3-46 5 2 10 6 12 9 8 11 4 7 1h10l16-2 4-1 2 8 2 11-1 5-36 8-8 1h-20l-13-3-11-6-10-9-7-10-5-11-3-12-1-9v-10l2-16 5-16 7-13 9-10 9-7 10-5 8-2zm-5 22-6 5-3 8-1 8v10l25-3 2-1v-12l-2-10-5-5z" fill="#FEFEFE"/>
<path transform="translate(923,323)" d="m0 0h50l10 16 8 11 7 11h2l10-17 8-13 5-8h32l-2 5-8 12-13 19-17 25 5 10 10 15 15 23 16 25v2h-49l-11-18-12-19-3-5v-2h-2l-2 6-24 38h-35l2-4 13-19 13-18 13-19 4-5-1-5-10-14-12-18-21-31z" fill="#FEFEFE"/>
<path transform="translate(497,80)" d="m0 0h41l17 3 25 10 10 6 11 7 11 9 14 14 10 14 9 16 6 15 2 8v8l-4 9-7 6-9 3-10-2-8-7-4-8-9-21-9-13-9-10-8-6-13-8-11-5-13-4-9-1-1-1-23-1v2l-9 1-1 1-7 1-4 1-10-4-8-9-3-10 4-11 8-8 7-3z" fill="#248EF1"/>
<path transform="translate(1227,294)" d="m0 0h20v27h28l1 1v26h-29l1 75 2 6 10 2h15l1 1v21l-18 5-15 3h-17l-9-3-7-5-5-8-2-6-1-8v-83l-12 1-1-1v-21l5-5 15-13 14-12z" fill="#FEFEFE"/>
<path transform="translate(514,336)" d="m0 0 3 1v95l-6 5-17 10-36 21-21 12-4 2h-3v-73l1-23 3-5 18-10 10-6 12-7 11-6 16-9z" fill="#F3F8FD"/>
<path transform="translate(416,266)" d="m0 0h7l14 8 41 24 18 10 8 6-3 3-28 16-12 7-10 6-13 8-10 5-5 3h-8l-14-8-16-9-18-11-16-9-16-10 1-3 35-20 10-6 6-3 26-16z" fill="#FAFCFD"/>
<path transform="translate(1330,320)" d="m0 0h8l1 12 10-8 10-3h10l10 2 1 1v44l-11-3-31-11v105h-44l-1-9v-100l1-24 9-2z" fill="#FEFEFE"/>
<path transform="translate(511,148)" d="m0 0h14l6 2 10 2 12 5 12 9 9 10 5 7 6 14 2 6-1 5-2 7-5 6-8 5h-12l-10-6-5-8-4-10-8-7-6-3h-14l-2 1h-10l-8-4-6-7-2-4v-12l5-9 3-3 10-4 8-1z" fill="#248EF1"/>
</svg>
