<?xml version="1.0" encoding="UTF-8"?>
<svg version="1.1" viewBox="0 0 2048 2048" width="1280" height="1280" xmlns="http://www.w3.org/2000/svg">
<path transform="translate(1007,524)" d="m0 0h34l12 2 19 5 19 8 24 13 10 6 13 8 23 13 10 6 18 10 13 8 17 9 9 6 25 14 17 10 23 13 15 9 21 12 15 9 16 9 18 10 10 6 16 10 12 9 10 9 11 11 10 13 7 11 8 16 6 16 4 19 2 16v354l-3 26-7 26-9 20-7 11-10 13-21 21-13 9-18 11-12 7-21 12-38 22-13 8-15 8-10 6-26 15-21 12-24 14-23 13-10 6-22 13-21 12-15 9-19 11-25 14-9 6-8 2-2-3v-173l5-8 11-8 24-14 26-15 13-8 16-9 21-12 18-11 12-6 16-10 11-6 17-10 23-13 17-10 16-10 10-9 3-4v-323l-6-8-9-8-26-15-16-9-20-12-23-13-19-11-13-8-27-15-15-9-14-8-9-6-14-7-16-10-23-13-13-8-16-7h-16l-11 5-19 10-11 7-14 8-13 8-10 6-5 2-6 5-16 8-24 14-21 12-13 8-16 9-10 6-21 12-16 9-22 13-17 10-9 8-5 9-1 507-1 1-8-1-19-10-15-9-23-13-8-5-15-9-14-10-15-14-11-12-7-10-8-13-6-12-6-19-4-20-2-52v-287l2-49 6-24 8-20 10-17 8-10 12-13 9-9 13-10 13-8 19-11 23-13 15-9 14-8 11-6 17-10 24-14 21-12 10-6 25-14 15-9 9-5 8-5 20-11 10-6 26-15 13-8 16-9 14-7 17-6 15-4z" fill="#2394FA"/>
<path transform="translate(792,920)" d="m0 0 5 2 19 10 24 14 14 8 13 8 17 9 17 10 16 9 11 7 20 11 15 9 18 11 9 7 6 9v477l-6-2-11-6-14-8-23-13-15-9-18-10-27-16-15-9-16-9-21-12-17-10-11-7-7-7-3-5z" fill="#FBFCFC"/>
<path transform="translate(1225,307)" d="m0 0h70l17 2 26 5 19 5 24 8 27 12 19 10 16 10 9 6 19 14 13 11 10 10 2 1v2l4 2v2l4 2v2h2v2h2l7 8 8 10 14 19 11 17 13 24 11 23 9 25 3 12v22l-5 13-7 9-7 7-12 6-10 4h-18l-6-3-7-2-9-6-9-9-7-14-10-28-12-25-9-15-7-10-10-12-7-9-13-13-9-7-13-10-13-8-10-6-16-8-14-6-11-4-14-4-20-4-18-2-4-1-22-1-13 1-2 1-23 3-8 2-9 2-10 2h-16l-2-1v-2l-8-2-10-6-10-10-6-12-3-9v-15l5-17 9-11 9-8 13-6 21-5 19-3 3-1z" fill="#2394FA"/>
<path transform="translate(1016,755)" d="m0 0h16l11 6 25 14 10 6 26 15 21 12 13 8 25 14 17 10 11 6 11 7 14 8 10 7-1 3-24 14-15 9-23 13-24 14-25 15-9 5-23 13-24 14-28 15-10 1-14-7-23-13-42-24-11-7-8-4-8-5-28-16-13-8-13-7-13-8-23-13-2-4 10-7 21-12 9-6 24-13 15-9 16-9 13-8 12-6 11-7 23-13 13-8 20-11z" fill="#FBFCFC"/>
<path transform="translate(1254,920)" d="m0 0h2v231l-7 8-10 7-11 6-18 11-22 12-10 6-24 14-25 14-15 9-14 8-19 11-18 10-5 4-5 1-1-5v-222l4-7 7-7 15-10 27-15 17-10 15-9 23-13 15-9 20-11 13-8 18-10 16-9z" fill="#FBFCFC"/>
<path transform="translate(1242,472)" d="m0 0h39l7 3 14 1 5 3 9 2 8 3 12 5 20 12 11 9 9 7v2l4 2 11 12 7 10 7 11 9 17 6 16 4 15v12l-2 4-2 8-6 10-8 9-10 6-11 5-6 1h-12l-9-2-14-7-9-8-8-13-4-11-8-16-7-9-7-6-19-9-13-3h-8l-2 1h-8l-16 5-5-1h-7l-12-4-14-8-12-15-4-12-1-2v-18l5-14 8-12 8-7 15-7 9-3 15-1v-2z" fill="#2393FA"/>
<path transform="translate(1578,537)" d="m0 0h2l4 14v22l-5 13-7 9-7 7-12 6-10 4h-18l-6-3-7-2-1-2h5l-2-5-3-5h2v2l3-1 3 2 6 1-8-5-12-15v-5l-2-5 2-2 4 1 9 4 9-1 4-1v-2l6 2 5-1 6 3 7-1 4-5 2-1v-6l-1-3 2-2 1 1 3-8h2l4 6 5-1 1-6z" fill="#1F88EB"/>
<path transform="translate(1472,841)" d="m0 0h2v353l-3 26-4 16-3 5-3 4-3-3 3-3 1-7v-6-2l-4 2-2-4 3-15 2-3 1-2 5-2 2-6v-17h-2l-1 2-1-10-3-10v-26l2 2v5h2v-3h2l1-13h1l1-226v-56z" fill="#1F88EB"/>
<path transform="translate(735,861)" d="m0 0h1v507l-3 1-1-10v-48l1-434z" fill="#1F88EB"/>
<path transform="translate(1312,863)" d="m0 0 2 2 1 3 1 17v277l-2 14-2 3z" fill="#1F88EB"/>
<path transform="translate(1411,569)" d="m0 0h2l6 15 5 18v12l-2 4-2 8-6 10-8 9-10 6-11 5h-9l-3-2-9-2v-3l-7 1-3-2-1-5 5 1 4 2 9 1h8l5 1v-2l5-3 11-4 5-5 10-15 3-3h-7l1-5 3-4-1-8 1-1h-1l-1-14-2-10z" fill="#2089EB"/>
<path transform="translate(1061,1471)" d="m0 0h1v12l1 13 1 1v-8l5-11h4l2-2 3 1 4-1 5 2 9-1-2 8h-2l-1 3-10 7-5 3-7 5-3-1 4 5-4 5-7-3-1-2v-21l2-13z" fill="#1F88EB"/>
<path transform="translate(1160,399)" d="m0 0 6 1 6 3 11 1h11l3 2 2-2 11-1 2 6 3-1 2-5 6-3 5 1-4 3h-2l-1 4h-4v2l-8 2-9 2-10 2h-16l-2-1v-2l-8-2-8-5 4-3z" fill="#2089EC"/>
<path transform="translate(1212,563)" d="m0 0 7 1 6 1h15l12-2h5v3 4l11-1 4 2-1 2h-10l-2 1h-8l-16 5-5-1h-7l-6-2-1-3 2-1v-3l-5-3z" fill="#1F88EB"/>
<path transform="translate(1577,571)" d="m0 0 1 2-5 8h-2l-2 5-5 5-13 8h-2l1-3 6-4 9-10 2-4h2v-2h2l1-3z" fill="#2394FB"/>
<path transform="translate(1178,395)" d="m0 0 12 1h17l2 2-4 1v2l-11 1-3-2-4-1-1 2-6 1-4-1 1-5z" fill="#1F88EB"/>
<path transform="translate(1378,327)" d="m0 0 5 1 25 11 19 10 9 6-3 1-10-6-14-7-15-7-14-6-3-2z" fill="#1F8AED"/>
<path transform="translate(1163,386)" d="m0 0 19 3h6l1-1h16l-4 3-7 1h-24l-7-1 4-2-4-2z" fill="#1F88EB"/>
<path transform="translate(1577,585)" d="m0 0 2 1-7 9-7 7-1-2-4-1 6-7h2l2-4 3-2 1 3zm-18 15m-2 1h2v2h-2z" fill="#2795FA"/>
<path transform="translate(1007,524)" d="m0 0h34l7 1v1l-46 1 4-2z" fill="#1F88EB"/>
<path transform="translate(1138,352)" d="m0 0 2 1-1 4v24l-3-3-1-4v-15l2-6z" fill="#258BEC"/>
<path transform="translate(1250,472)" d="m0 0h31l4 2v1l-37-1z" fill="#268EF0"/>
<path transform="translate(1408,340)" d="m0 0 6 2 16 9 6 4-3 1-10-6-14-7z" fill="#228BED"/>
<path transform="translate(1400,628)" d="m0 0h2l-1 4-8 8-4 1v-4l5-5h3l1-3z" fill="#1F88EB"/>
<path transform="translate(1223,400)" d="m0 0 5 1-4 3h-2l-1 4h-4v2l-5 1 5-8z" fill="#1F88EB"/>
<path transform="translate(883,750)" d="m0 0h3l1 4-8 4-3-1 1-4z" fill="#1F88EB"/>
<path transform="translate(1492,586)" d="m0 0h2l3 5 6 5 4 5v2l-4-2-9-9-2-3z" fill="#1F88EB"/>
<path transform="translate(1436,356)" d="m0 0 5 2 10 6 6 5-2 1-8-5v-2l-4-1-6-4z" fill="#248CED"/>
<path transform="translate(1409,599)" d="m0 0h1v5h2l1 3-1 4-6-1 2-10z" fill="#1F88EB"/>
<path transform="translate(1221,575)" d="m0 0h10l7 1v2l-5 1-3-1h-7l-3-2z" fill="#339BFB"/>
<path transform="translate(1246,569)" d="m0 0 1 4-9 2 1-4 5-1 2 1z" fill="#2293F9"/>
<path transform="translate(1358,653)" d="m0 0 9 1 5 1v1h-11l-3-1z" fill="#1F88EC"/>
<path transform="translate(1377,521)" d="m0 0 4 1 7 8h-3l-5-5z" fill="#288EEE"/>
<path transform="translate(1183,514)" d="m0 0 1 3-2 10-2-2 1-9z" fill="#1F88EB"/>
</svg>
